<?xml version="1.0" standalone="no"?>
<!DOCTYPE svg PUBLIC "-//W3C//DTD SVG 20010904//EN"
 "http://www.w3.org/TR/2001/REC-SVG-20010904/DTD/svg10.dtd">
<svg version="1.0" xmlns="http://www.w3.org/2000/svg"
 width="360.000000pt" height="360.000000pt" viewBox="0 0 360.000000 360.000000"
 preserveAspectRatio="xMidYMid meet">

<g transform="translate(0.000000,360.000000) scale(0.100000,-0.100000)"
fill="#000000" stroke="none">
<path d="M1400 2070 l0 -620 -377 -1 -378 0 265 -55 c146 -30 315 -66 375 -79
l110 -23 -465 -3 c-256 -1 -451 -4 -435 -6 17 -2 224 -24 460 -48 237 -25 453
-49 480 -54 32 -5 -149 -10 -490 -12 -297 -1 -513 -4 -480 -6 33 -2 306 -23
607 -46 l546 -42 7 70 c14 137 60 247 139 333 131 142 280 98 381 -113 36 -75
75 -216 75 -275 0 -19 3 -52 6 -73 l7 -37 523 0 522 1 11 48 c42 199 10 359
-94 461 l-45 44 0 -114 c0 -97 -19 -266 -35 -320 -4 -13 -44 -15 -292 -13
l-287 2 -32 70 c-50 108 -120 210 -198 286 -134 132 -284 174 -434 121 -60
-22 -51 -9 16 22 81 37 223 43 314 13 80 -27 156 -77 232 -154 l58 -60 -4 99
c-3 81 -9 110 -31 159 -36 78 -87 130 -162 166 l-60 29 -202 0 -203 0 0 198 0
198 -35 34 -35 34 0 -232 0 -232 -125 0 -125 0 0 310 c0 250 3 310 13 310 28
0 125 -34 187 -65 149 -77 269 -218 331 -390 27 -77 22 -28 -6 59 -50 153
-119 261 -243 377 -43 41 -109 92 -146 113 -36 21 -64 41 -62 44 10 9 174 -80
231 -126 32 -26 79 -72 103 -101 30 -38 42 -47 37 -30 -17 58 -66 171 -89 208
-14 22 -26 43 -26 46 0 3 93 5 206 5 l206 0 91 -47 c104 -54 232 -147 277
-201 47 -57 35 -27 -25 64 -68 102 -162 189 -256 237 l-71 37 -434 0 -434 0 0
-620z"/>
<path d="M2036 2232 c43 -86 74 -207 74 -289 l0 -64 371 1 c204 1 373 -1 375
-3 3 -3 -75 -8 -173 -12 -98 -4 -197 -10 -221 -14 l-43 -6 55 -30 56 -30 0
-253 c0 -195 4 -269 16 -323 l16 -69 259 0 259 0 5 23 c13 57 25 259 25 430
l0 187 -257 1 c-142 0 -253 2 -248 4 8 3 374 33 427 35 7 1 -12 14 -44 30 -55
29 -56 30 -63 81 -16 119 -62 241 -121 320 l-36 49 -383 0 -383 0 34 -68z
m484 34 c0 -2 -62 -37 -137 -77 -76 -39 -161 -85 -190 -101 l-52 -29 -11 43
c-7 24 -25 71 -40 106 l-29 62 230 0 c126 0 229 -2 229 -4z m226 -3 c-3 -4
-136 -82 -294 -174 l-287 -167 -7 41 c-4 23 -4 45 0 49 5 5 102 64 218 132
l209 124 84 1 c46 1 81 -2 77 -6z m324 -568 c0 -13 -34 -15 -245 -15 -211 0
-245 2 -245 15 0 13 34 15 245 15 211 0 245 -2 245 -15z m0 -95 c0 -20 -5 -20
-242 -18 -222 3 -243 4 -246 21 -3 16 14 17 242 17 240 0 246 0 246 -20z m0
-90 c0 -19 -7 -20 -245 -20 -238 0 -245 1 -245 20 0 19 7 20 245 20 238 0 245
-1 245 -20z m-5 -90 c0 -13 -34 -15 -237 -18 -234 -2 -238 -2 -238 18 0 20 4
20 238 18 203 -3 237 -5 237 -18z m-5 -95 c0 -13 -32 -15 -230 -15 -198 0
-230 2 -230 15 0 13 32 15 230 15 198 0 230 -2 230 -15z m-20 -90 c0 -13 -31
-15 -215 -15 -184 0 -215 2 -215 15 0 13 31 15 215 15 184 0 215 -2 215 -15z"/>
<path d="M1860 1484 c-76 -33 -132 -116 -148 -220 -22 -138 29 -275 123 -330
77 -44 162 -28 226 43 129 143 95 422 -61 501 -51 26 -91 27 -140 6z m70 -86
c19 -13 35 -29 38 -36 2 -7 -13 -1 -34 13 -75 51 -138 1 -170 -135 l-13 -55 2
56 c2 31 12 73 24 95 21 41 74 84 103 84 9 0 32 -10 50 -22z m6 -43 c37 -37
54 -87 54 -158 0 -71 -28 -138 -71 -170 -54 -39 -120 14 -141 116 -32 150 76
294 158 212z"/>
<path d="M1823 1288 c-24 -45 -24 -145 0 -181 25 -39 45 -44 70 -18 19 19 22
33 22 105 0 68 -4 88 -19 105 -27 30 -53 26 -73 -11z"/>
</g>
</svg>
